<svg width="41" height="41" viewBox="0 0 41 41" fill="none" xmlns="http://www.w3.org/2000/svg">
<path d="M31.2381 37.0952H3.90476V9.7619H21.4762V5.85714H3.90476C1.75714 5.85714 0 7.61429 0 9.7619V37.0952C0 39.2429 1.75714 41 3.90476 41H31.2381C33.3857 41 35.1429 39.2429 35.1429 37.0952V19.5238H31.2381V37.0952ZM16.029 30.9062L12.2024 26.2986L6.83333 33.1905H28.3095L21.3981 23.9948L16.029 30.9062ZM35.1429 5.85714V0H31.2381V5.85714H25.381C25.4005 5.87667 25.381 9.7619 25.381 9.7619H31.2381V15.5995C31.2576 15.619 35.1429 15.5995 35.1429 15.5995V9.7619H41V5.85714H35.1429Z" fill="#DDE2FF"/>
</svg>
