<svg width="108" height="90" viewBox="0 0 108 90" fill="none" xmlns="http://www.w3.org/2000/svg">
<path fill-rule="evenodd" clip-rule="evenodd" d="M108 90H0V0H108V90ZM103.5 4.5H4.5V85.5H103.5V4.5ZM99 76.5H13.5L31.5 42.786L45 56.502L67.5585 22.5L99 76.5ZM45.684 63.6075L32.589 50.3055L21.006 72H91.1745L67.311 31.014L45.684 63.6075ZM24.75 13.5C30.96 13.5 36 18.54 36 24.75C36 30.96 30.96 36 24.75 36C18.54 36 13.5 30.96 13.5 24.75C13.5 18.54 18.54 13.5 24.75 13.5ZM24.75 18C28.476 18 31.5 21.024 31.5 24.75C31.5 28.476 28.476 31.5 24.75 31.5C21.024 31.5 18 28.476 18 24.75C18 21.024 21.024 18 24.75 18Z" fill="#717484"/>
</svg>
