<svg width="16" height="12" viewBox="0 0 16 12" fill="none" xmlns="http://www.w3.org/2000/svg">
<path d="M8 1.6C5.24364 1.6 2.78545 3.304 1.58545 6C2.78545 8.696 5.24364 10.4 8 10.4C10.7564 10.4 13.2145 8.696 14.4145 6C13.2145 3.304 10.7564 1.6 8 1.6ZM8 0C11.6364 0 14.7418 2.488 16 6C14.7418 9.512 11.6364 12 8 12C4.36364 12 1.25818 9.512 0 6C1.25818 2.488 4.36364 0 8 0ZM8 4C6.99636 4 6.18182 4.896 6.18182 6C6.18182 7.104 6.99636 8 8 8C9.00364 8 9.81818 7.104 9.81818 6C9.81818 4.896 9.00364 4 8 4ZM8 2.4C9.80364 2.4 11.2727 4.016 11.2727 6C11.2727 7.984 9.80364 9.6 8 9.6C6.19636 9.6 4.72727 7.984 4.72727 6C4.72727 4.016 6.19636 2.4 8 2.4Z" fill="#60626E"/>
</svg>
