<svg width="34" height="44" viewBox="0 0 34 44" fill="none" xmlns="http://www.w3.org/2000/svg">
<path opacity="0.2" d="M2 0H24C24.016 0 33.969 9.969 33.969 10L34 42C34 42.5304 33.7893 43.0391 33.4142 43.4142C33.0391 43.7893 32.5304 44 32 44H2C1.46957 44 0.960859 43.7893 0.585786 43.4142C0.210714 43.0391 0 42.5304 0 42V2C0 1.46957 0.210714 0.960859 0.585786 0.585786C0.960859 0.210714 1.46957 0 2 0V0Z" fill="#999999"/>
<path d="M24 0L34 10H24V0Z" fill="#999999"/>
<path d="M8 24H23" stroke="#2058D5" stroke-width="2"/>
<path d="M8 32H16" stroke="#2058D5" stroke-width="2"/>
</svg>
