<svg width="34" height="42" viewBox="0 0 34 42" fill="none" xmlns="http://www.w3.org/2000/svg">
<path d="M15.9171 3.99998C22.9806 3.99998 20.4 14.2 20.4 14.2C20.4 14.2 30.6 11.395 30.6 18.3769V38H3.4V3.99998H15.9171ZM17.3213 0.599976H0V41.4H34V16.9438C34 12.8791 22.6984 0.599976 17.3213 0.599976ZM25.5 22.7H21.0324V28.9662H22.5743V26.4638H25.1073V25.2194H22.5743V24.0328H25.5V22.7ZM17.17 22.7H14.4517V28.9662H17.17C18.0829 28.9662 18.8037 28.6585 19.3154 28.0567C20.2589 26.9381 20.3133 24.5989 19.21 23.4803C18.7034 22.9703 17.9996 22.7 17.17 22.7ZM15.9936 24.0311H16.8368C17.6409 24.0311 18.2002 24.3252 18.3923 25.1259C18.5011 25.5798 18.5232 26.2802 18.3566 26.7375C18.139 27.3342 17.7089 27.6351 17.0748 27.6351H15.9919V24.0311H15.9936ZM11.3356 22.7H8.5V28.9662H10.0419V26.7953H11.3356C12.3879 26.7953 13.1444 26.3244 13.4164 25.4982C13.5779 25.0035 13.5779 24.4833 13.4164 23.9937C13.1444 23.1709 12.3862 22.7 11.3356 22.7ZM10.0419 23.9444H10.9701C11.3696 23.9444 11.764 23.992 11.9493 24.332C12.0632 24.5411 12.0632 24.9542 11.9493 25.1633C11.764 25.5016 11.3696 25.5492 10.9701 25.5492H10.0419V23.9444Z" fill="#717484"/>
</svg>
